<svg width="32" height="40" viewBox="0 0 32 40" fill="none" xmlns="http://www.w3.org/2000/svg">
<path d="M29.5 3.75008H22.36C21.5859 2.81322 20.6145 2.05893 19.515 1.54115C18.4155 1.02337 17.2153 0.754883 16 0.754883C14.7847 0.754883 13.5845 1.02337 12.485 1.54115C11.3855 2.05893 10.4141 2.81322 9.64 3.75008H2.5C1.90326 3.75008 1.33097 3.98714 0.909009 4.40909C0.487053 4.83105 0.25 5.40335 0.25 6.00008V37.5001C0.25 38.0968 0.487053 38.6691 0.909009 39.0911C1.33097 39.513 1.90326 39.7501 2.5 39.7501H29.5C30.0967 39.7501 30.669 39.513 31.091 39.0911C31.5129 38.6691 31.75 38.0968 31.75 37.5001V6.00008C31.75 5.40335 31.5129 4.83105 31.091 4.40909C30.669 3.98714 30.0967 3.75008 29.5 3.75008ZM16 2.25008C17.7902 2.25008 19.5071 2.96124 20.773 4.22711C22.0388 5.49298 22.75 7.20987 22.75 9.00008V9.75008H9.25V9.00008C9.25 7.20987 9.96116 5.49298 11.227 4.22711C12.4929 2.96124 14.2098 2.25008 16 2.25008ZM30.25 37.5001C30.25 37.699 30.171 37.8898 30.0303 38.0304C29.8897 38.1711 29.6989 38.2501 29.5 38.2501H2.5C2.30109 38.2501 2.11032 38.1711 1.96967 38.0304C1.82902 37.8898 1.75 37.699 1.75 37.5001V6.00008C1.75 5.80117 1.82902 5.61041 1.96967 5.46976C2.11032 5.3291 2.30109 5.25008 2.5 5.25008H8.65563C8.05966 6.41022 7.74919 7.69583 7.75 9.00008V10.5001C7.75 10.699 7.82902 10.8898 7.96967 11.0304C8.11032 11.1711 8.30109 11.2501 8.5 11.2501H23.5C23.6989 11.2501 23.8897 11.1711 24.0303 11.0304C24.171 10.8898 24.25 10.699 24.25 10.5001V9.00008C24.2508 7.69583 23.9403 6.41022 23.3444 5.25008H29.5C29.6989 5.25008 29.8897 5.3291 30.0303 5.46976C30.171 5.61041 30.25 5.80117 30.25 6.00008V37.5001Z" fill="#201B1B"/>
</svg>
