<svg width="41" height="41" viewBox="0 0 41 41" fill="none" xmlns="http://www.w3.org/2000/svg">
<path d="M22.32 17.12L23.4467 18.7234L25.18 17.4667V26.5667H27.0433V14.6067H25.4833L22.32 17.12Z" fill="#1E88E5"/>
<path d="M19.33 20.2401C20.0233 19.6335 20.4567 18.7235 20.4567 17.7701C20.4567 15.8635 18.7667 14.3035 16.73 14.3035C14.9967 14.3035 13.48 15.3868 13.09 16.9901L14.91 17.4668C15.0833 16.7301 15.8633 16.2101 16.73 16.2101C17.77 16.2101 18.5933 16.9035 18.5933 17.7701C18.5933 18.6368 17.77 19.3301 16.73 19.3301H15.6467V21.2368H16.73C17.9 21.2368 18.8967 22.0601 18.8967 23.0135C18.8967 24.0101 17.9433 24.7901 16.7733 24.7901C15.7333 24.7901 14.8233 24.1401 14.6933 23.2301L12.8733 23.5335C13.1767 25.3101 14.8667 26.6535 16.8167 26.6535C19.0267 26.6535 20.8033 25.0068 20.8033 22.9701C20.76 21.8868 20.1967 20.8901 19.33 20.2401Z" fill="#1E88E5"/>
<path d="M31.42 40.1302H9.57999V31.4202H31.42V40.1302Z" fill="#FBC02D"/>
<path d="M40.13 31.4201V9.58008H31.42V31.4201H40.13Z" fill="#4CAF50"/>
<path d="M31.42 9.58012V0.870117H4.11999C2.29999 0.870117 0.82666 2.34345 0.82666 4.16345V31.4635H9.53666V9.58012H31.42Z" fill="#1E88E5"/>
<path d="M31.42 31.4202V40.1302L40.13 31.4202H31.42Z" fill="#E53935"/>
<path d="M36.88 0.870117H31.42V9.58012H40.13V4.12012C40.13 2.30012 38.7 0.870117 36.88 0.870117Z" fill="#1565C0"/>
<path d="M4.11999 40.1302H9.57999V31.4202H0.869995V36.8802C0.869995 38.7002 2.3 40.1302 4.11999 40.1302Z" fill="#1565C0"/>
</svg>
