<svg width="49" height="49" viewBox="0 0 49 49" fill="none" xmlns="http://www.w3.org/2000/svg">
<rect x="0.143066" y="0.357178" width="48.2857" height="48.2857" rx="24.1429" fill="white" fill-opacity="0.2"/>
<g clip-path="url(#clip0_1_60552)">
<path d="M35.4327 24.5039C35.4327 18.3499 30.4439 13.3611 24.2898 13.3611C18.1358 13.3611 13.147 18.3499 13.147 24.5039C13.147 30.0656 17.2217 34.6755 22.5488 35.5114V27.7249H19.7195V24.5039H22.5488V22.049C22.5488 19.2564 24.2124 17.7138 26.7576 17.7138C27.9763 17.7138 29.2519 17.9314 29.2519 17.9314V20.6736H27.8468C26.4627 20.6736 26.0309 21.5326 26.0309 22.4147V24.5039H29.1213L28.6273 27.7249H26.0309V35.5114C31.3579 34.6755 35.4327 30.0656 35.4327 24.5039Z" fill="white"/>
</g>
<defs>
<clipPath id="clip0_1_60552">
<rect width="22.2857" height="22.2857" fill="white" transform="translate(13.147 13.3611)"/>
</clipPath>
</defs>
</svg>
