<svg width="44" height="30" viewBox="0 0 44 30" fill="none" xmlns="http://www.w3.org/2000/svg">
<path d="M40.8981 8.43754C30.6531 -1.81121 13.3469 -1.81121 3.10188 8.43754C-0.370624 11.9063 -0.706249 17.0269 2.28438 20.8857C2.583 21.2668 2.99662 21.5415 3.46379 21.6688C3.93096 21.7962 4.42675 21.7694 4.8775 21.5925L14.065 18.3319L14.0931 18.3207C14.4406 18.1816 14.748 17.9581 14.9873 17.6703C15.2267 17.3825 15.3904 17.0396 15.4638 16.6725L16.57 11.1394C16.5925 11.0127 16.6478 10.8941 16.7304 10.7955C16.8129 10.6968 16.9199 10.6214 17.0406 10.5769C20.2274 9.47088 23.6926 9.46296 26.8844 10.5544C27.0039 10.5978 27.1102 10.6714 27.193 10.768C27.2758 10.8646 27.3322 10.9809 27.3569 11.1057L28.5269 16.6875C28.6027 17.0508 28.7672 17.3896 29.0056 17.6739C29.2441 17.9582 29.5492 18.1791 29.8938 18.3169L29.9219 18.3282L39.1225 21.5925C39.5732 21.7694 40.069 21.7962 40.5362 21.6688C41.0034 21.5415 41.417 21.2668 41.7156 20.8857C44.7062 17.0269 44.3706 11.9063 40.8981 8.43754ZM40.5231 19.9707C40.4225 20.0962 40.2841 20.186 40.1284 20.2269C39.9728 20.2678 39.8081 20.2575 39.6587 20.1975L39.6306 20.1863L30.4375 16.92C30.3254 16.8731 30.2263 16.7996 30.1489 16.7058C30.0715 16.6121 30.018 16.5009 29.9931 16.3819L28.8288 10.8038C28.75 10.425 28.5748 10.073 28.3203 9.78167C28.0657 9.49034 27.7404 9.26957 27.3756 9.14066C23.8651 7.94071 20.054 7.94995 16.5494 9.16691C16.1826 9.29874 15.8564 9.52357 15.6026 9.81939C15.3489 10.1152 15.1763 10.4719 15.1019 10.8544L13.9956 16.3875C13.9716 16.505 13.9197 16.6151 13.8443 16.7084C13.769 16.8017 13.6723 16.8756 13.5625 16.9238L4.375 20.1825L4.34688 20.1938C4.19752 20.2537 4.03286 20.264 3.87721 20.2231C3.72156 20.1823 3.58317 20.0925 3.4825 19.9669C0.966251 16.7232 1.25125 12.4182 4.17438 9.49504C8.99688 4.65941 15.4994 2.25004 22 2.25004C28.5006 2.25004 35.0031 4.66691 39.8369 9.50254C42.7581 12.4182 43.045 16.7232 40.5288 19.9669L40.5231 19.9707ZM39.25 28.5C39.25 28.6989 39.171 28.8897 39.0303 29.0304C38.8897 29.171 38.6989 29.25 38.5 29.25H5.5C5.30109 29.25 5.11032 29.171 4.96967 29.0304C4.82902 28.8897 4.75 28.6989 4.75 28.5C4.75 28.3011 4.82902 28.1104 4.96967 27.9697C5.11032 27.8291 5.30109 27.75 5.5 27.75H38.5C38.6989 27.75 38.8897 27.8291 39.0303 27.9697C39.171 28.1104 39.25 28.3011 39.25 28.5Z" fill="white"/>
</svg>
