<svg width="44" height="35" viewBox="0 0 44 35" fill="none" xmlns="http://www.w3.org/2000/svg">
<path d="M41.5 4.75H36.25V1C36.25 0.801088 36.171 0.610322 36.0303 0.46967C35.8897 0.329018 35.6989 0.25 35.5 0.25H8.5C8.30109 0.25 8.11032 0.329018 7.96967 0.46967C7.82902 0.610322 7.75 0.801088 7.75 1V4.75H2.5C1.90326 4.75 1.33097 4.98705 0.90901 5.40901C0.487053 5.83097 0.25 6.40326 0.25 7V10C0.25 11.7902 0.961159 13.5071 2.22703 14.773C3.4929 16.0388 5.20979 16.75 7 16.75H8.24875C9.03795 19.6424 10.7193 22.2121 13.0536 24.0936C15.3878 25.9751 18.256 27.0724 21.25 27.2294V33.25H16C15.8011 33.25 15.6103 33.329 15.4697 33.4697C15.329 33.6103 15.25 33.8011 15.25 34C15.25 34.1989 15.329 34.3897 15.4697 34.5303C15.6103 34.671 15.8011 34.75 16 34.75H28C28.1989 34.75 28.3897 34.671 28.5303 34.5303C28.671 34.3897 28.75 34.1989 28.75 34C28.75 33.8011 28.671 33.6103 28.5303 33.4697C28.3897 33.329 28.1989 33.25 28 33.25H22.75V27.2275C28.9244 26.9013 34.0769 22.5569 35.7081 16.75H37C38.7902 16.75 40.5071 16.0388 41.773 14.773C43.0388 13.5071 43.75 11.7902 43.75 10V7C43.75 6.40326 43.5129 5.83097 43.091 5.40901C42.669 4.98705 42.0967 4.75 41.5 4.75ZM7 15.25C5.60761 15.25 4.27226 14.6969 3.28769 13.7123C2.30312 12.7277 1.75 11.3924 1.75 10V7C1.75 6.80109 1.82902 6.61032 1.96967 6.46967C2.11032 6.32902 2.30109 6.25 2.5 6.25H7.75V13C7.75367 13.7537 7.81636 14.506 7.9375 15.25H7ZM34.75 12.8312C34.75 19.9019 28.9769 25.6975 22 25.75C18.6185 25.75 15.3755 24.4067 12.9844 22.0156C10.5933 19.6245 9.25 16.3815 9.25 13V1.75H34.75V12.8312ZM42.25 10C42.25 10.6894 42.1142 11.3721 41.8504 12.0091C41.5865 12.646 41.1998 13.2248 40.7123 13.7123C40.2248 14.1998 39.646 14.5865 39.0091 14.8504C38.3721 15.1142 37.6894 15.25 37 15.25H36.0437C36.18 14.4509 36.249 13.6418 36.25 12.8312V6.25H41.5C41.6989 6.25 41.8897 6.32902 42.0303 6.46967C42.171 6.61032 42.25 6.80109 42.25 7V10Z" fill="white"/>
</svg>
