<svg width="49" height="48" viewBox="0 0 49 48" fill="none" xmlns="http://www.w3.org/2000/svg">
<path d="M44 12.75H38.75V9C38.75 8.80109 38.671 8.61032 38.5303 8.46967C38.3897 8.32902 38.1989 8.25 38 8.25H11C10.8011 8.25 10.6103 8.32902 10.4697 8.46967C10.329 8.61032 10.25 8.80109 10.25 9V12.75H5C4.40326 12.75 3.83097 12.9871 3.40901 13.409C2.98705 13.831 2.75 14.4033 2.75 15V18C2.75 19.7902 3.46116 21.5071 4.72703 22.773C5.9929 24.0388 7.70979 24.75 9.5 24.75H10.7487C11.538 27.6424 13.2193 30.2121 15.5536 32.0936C17.8878 33.9751 20.756 35.0724 23.75 35.2294V41.25H18.5C18.3011 41.25 18.1103 41.329 17.9697 41.4697C17.829 41.6103 17.75 41.8011 17.75 42C17.75 42.1989 17.829 42.3897 17.9697 42.5303C18.1103 42.671 18.3011 42.75 18.5 42.75H30.5C30.6989 42.75 30.8897 42.671 31.0303 42.5303C31.171 42.3897 31.25 42.1989 31.25 42C31.25 41.8011 31.171 41.6103 31.0303 41.4697C30.8897 41.329 30.6989 41.25 30.5 41.25H25.25V35.2275C31.4244 34.9013 36.5769 30.5569 38.2081 24.75H39.5C41.2902 24.75 43.0071 24.0388 44.273 22.773C45.5388 21.5071 46.25 19.7902 46.25 18V15C46.25 14.4033 46.0129 13.831 45.591 13.409C45.169 12.9871 44.5967 12.75 44 12.75ZM9.5 23.25C8.10761 23.25 6.77226 22.6969 5.78769 21.7123C4.80312 20.7277 4.25 19.3924 4.25 18V15C4.25 14.8011 4.32902 14.6103 4.46967 14.4697C4.61032 14.329 4.80109 14.25 5 14.25H10.25V21C10.2537 21.7537 10.3164 22.506 10.4375 23.25H9.5ZM37.25 20.8312C37.25 27.9019 31.4769 33.6975 24.5 33.75C21.1185 33.75 17.8755 32.4067 15.4844 30.0156C13.0933 27.6245 11.75 24.3815 11.75 21V9.75H37.25V20.8312ZM44.75 18C44.75 18.6894 44.6142 19.3721 44.3504 20.0091C44.0865 20.646 43.6998 21.2248 43.2123 21.7123C42.7248 22.1998 42.146 22.5865 41.5091 22.8504C40.8721 23.1142 40.1894 23.25 39.5 23.25H38.5437C38.68 22.4509 38.749 21.6418 38.75 20.8312V14.25H44C44.1989 14.25 44.3897 14.329 44.5303 14.4697C44.671 14.6103 44.75 14.8011 44.75 15V18Z" fill="white"/>
</svg>
