<svg width="32" height="40" viewBox="0 0 32 40" fill="none" xmlns="http://www.w3.org/2000/svg">
<path d="M29.5 3.74996H22.36C21.5859 2.8131 20.6145 2.05881 19.515 1.54103C18.4155 1.02325 17.2153 0.754761 16 0.754761C14.7847 0.754761 13.5845 1.02325 12.485 1.54103C11.3855 2.05881 10.4141 2.8131 9.64 3.74996H2.5C1.90326 3.74996 1.33097 3.98702 0.909009 4.40897C0.487053 4.83093 0.25 5.40323 0.25 5.99996V37.5C0.25 38.0967 0.487053 38.669 0.909009 39.091C1.33097 39.5129 1.90326 39.75 2.5 39.75H29.5C30.0967 39.75 30.669 39.5129 31.091 39.091C31.5129 38.669 31.75 38.0967 31.75 37.5V5.99996C31.75 5.40323 31.5129 4.83093 31.091 4.40897C30.669 3.98702 30.0967 3.74996 29.5 3.74996ZM16 2.24996C17.7902 2.24996 19.5071 2.96112 20.773 4.22699C22.0388 5.49286 22.75 7.20975 22.75 8.99996V9.74996H9.25V8.99996C9.25 7.20975 9.96116 5.49286 11.227 4.22699C12.4929 2.96112 14.2098 2.24996 16 2.24996ZM30.25 37.5C30.25 37.6989 30.171 37.8896 30.0303 38.0303C29.8897 38.1709 29.6989 38.25 29.5 38.25H2.5C2.30109 38.25 2.11032 38.1709 1.96967 38.0303C1.82902 37.8896 1.75 37.6989 1.75 37.5V5.99996C1.75 5.80105 1.82902 5.61029 1.96967 5.46963C2.11032 5.32898 2.30109 5.24996 2.5 5.24996H8.65563C8.05966 6.4101 7.74919 7.69571 7.75 8.99996V10.5C7.75 10.6989 7.82902 10.8896 7.96967 11.0303C8.11032 11.1709 8.30109 11.25 8.5 11.25H23.5C23.6989 11.25 23.8897 11.1709 24.0303 11.0303C24.171 10.8896 24.25 10.6989 24.25 10.5V8.99996C24.2508 7.69571 23.9403 6.4101 23.3444 5.24996H29.5C29.6989 5.24996 29.8897 5.32898 30.0303 5.46963C30.171 5.61029 30.25 5.80105 30.25 5.99996V37.5Z" fill="white"/>
</svg>
