<svg width="49" height="48" viewBox="0 0 49 48" fill="none" xmlns="http://www.w3.org/2000/svg">
<path d="M39.5 6.75H34.25V4.5C34.25 4.30109 34.171 4.11032 34.0303 3.96967C33.8897 3.82902 33.6989 3.75 33.5 3.75C33.3011 3.75 33.1103 3.82902 32.9697 3.96967C32.829 4.11032 32.75 4.30109 32.75 4.5V6.75H16.25V4.5C16.25 4.30109 16.171 4.11032 16.0303 3.96967C15.8897 3.82902 15.6989 3.75 15.5 3.75C15.3011 3.75 15.1103 3.82902 14.9697 3.96967C14.829 4.11032 14.75 4.30109 14.75 4.5V6.75H9.5C8.90326 6.75 8.33097 6.98705 7.90901 7.40901C7.48705 7.83097 7.25 8.40326 7.25 9V39C7.25 39.5967 7.48705 40.169 7.90901 40.591C8.33097 41.0129 8.90326 41.25 9.5 41.25H39.5C40.0967 41.25 40.669 41.0129 41.091 40.591C41.5129 40.169 41.75 39.5967 41.75 39V9C41.75 8.40326 41.5129 7.83097 41.091 7.40901C40.669 6.98705 40.0967 6.75 39.5 6.75ZM9.5 8.25H14.75V10.5C14.75 10.6989 14.829 10.8897 14.9697 11.0303C15.1103 11.171 15.3011 11.25 15.5 11.25C15.6989 11.25 15.8897 11.171 16.0303 11.0303C16.171 10.8897 16.25 10.6989 16.25 10.5V8.25H32.75V10.5C32.75 10.6989 32.829 10.8897 32.9697 11.0303C33.1103 11.171 33.3011 11.25 33.5 11.25C33.6989 11.25 33.8897 11.171 34.0303 11.0303C34.171 10.8897 34.25 10.6989 34.25 10.5V8.25H39.5C39.6989 8.25 39.8897 8.32902 40.0303 8.46967C40.171 8.61032 40.25 8.80109 40.25 9V15.75H8.75V9C8.75 8.80109 8.82902 8.61032 8.96967 8.46967C9.11032 8.32902 9.30109 8.25 9.5 8.25ZM39.5 39.75H9.5C9.30109 39.75 9.11032 39.671 8.96967 39.5303C8.82902 39.3897 8.75 39.1989 8.75 39V17.25H40.25V39C40.25 39.1989 40.171 39.3897 40.0303 39.5303C39.8897 39.671 39.6989 39.75 39.5 39.75ZM31.7806 23.4694C31.8504 23.539 31.9057 23.6217 31.9434 23.7128C31.9812 23.8038 32.0006 23.9014 32.0006 24C32.0006 24.0986 31.9812 24.1962 31.9434 24.2872C31.9057 24.3783 31.8504 24.461 31.7806 24.5306L22.7806 33.5306C22.711 33.6004 22.6283 33.6557 22.5372 33.6934C22.4462 33.7312 22.3486 33.7506 22.25 33.7506C22.1514 33.7506 22.0538 33.7312 21.9628 33.6934C21.8717 33.6557 21.789 33.6004 21.7194 33.5306L17.2194 29.0306C17.0786 28.8899 16.9996 28.699 16.9996 28.5C16.9996 28.301 17.0786 28.1101 17.2194 27.9694C17.3601 27.8286 17.551 27.7496 17.75 27.7496C17.949 27.7496 18.1399 27.8286 18.2806 27.9694L22.25 31.9387L30.7194 23.4694C30.789 23.3996 30.8717 23.3443 30.9628 23.3066C31.0538 23.2688 31.1514 23.2494 31.25 23.2494C31.3486 23.2494 31.4462 23.2688 31.5372 23.3066C31.6283 23.3443 31.711 23.3996 31.7806 23.4694Z" fill="white"/>
</svg>
