<svg width="36" height="39" viewBox="0 0 36 39" fill="none" xmlns="http://www.w3.org/2000/svg">
<path d="M33 3.75H27.75V1.5C27.75 1.30109 27.671 1.11032 27.5303 0.96967C27.3897 0.829018 27.1989 0.75 27 0.75C26.8011 0.75 26.6103 0.829018 26.4697 0.96967C26.329 1.11032 26.25 1.30109 26.25 1.5V3.75H9.75V1.5C9.75 1.30109 9.67098 1.11032 9.53033 0.96967C9.38968 0.829018 9.19891 0.75 9 0.75C8.80109 0.75 8.61032 0.829018 8.46967 0.96967C8.32902 1.11032 8.25 1.30109 8.25 1.5V3.75H3C2.40326 3.75 1.83097 3.98705 1.40901 4.40901C0.987053 4.83097 0.75 5.40326 0.75 6V36C0.75 36.5967 0.987053 37.169 1.40901 37.591C1.83097 38.0129 2.40326 38.25 3 38.25H33C33.5967 38.25 34.169 38.0129 34.591 37.591C35.0129 37.169 35.25 36.5967 35.25 36V6C35.25 5.40326 35.0129 4.83097 34.591 4.40901C34.169 3.98705 33.5967 3.75 33 3.75ZM3 5.25H8.25V7.5C8.25 7.69891 8.32902 7.88968 8.46967 8.03033C8.61032 8.17098 8.80109 8.25 9 8.25C9.19891 8.25 9.38968 8.17098 9.53033 8.03033C9.67098 7.88968 9.75 7.69891 9.75 7.5V5.25H26.25V7.5C26.25 7.69891 26.329 7.88968 26.4697 8.03033C26.6103 8.17098 26.8011 8.25 27 8.25C27.1989 8.25 27.3897 8.17098 27.5303 8.03033C27.671 7.88968 27.75 7.69891 27.75 7.5V5.25H33C33.1989 5.25 33.3897 5.32902 33.5303 5.46967C33.671 5.61032 33.75 5.80109 33.75 6V12.75H2.25V6C2.25 5.80109 2.32902 5.61032 2.46967 5.46967C2.61032 5.32902 2.80109 5.25 3 5.25ZM33 36.75H3C2.80109 36.75 2.61032 36.671 2.46967 36.5303C2.32902 36.3897 2.25 36.1989 2.25 36V14.25H33.75V36C33.75 36.1989 33.671 36.3897 33.5303 36.5303C33.3897 36.671 33.1989 36.75 33 36.75ZM25.2806 20.4694C25.3504 20.539 25.4057 20.6217 25.4434 20.7128C25.4812 20.8038 25.5006 20.9014 25.5006 21C25.5006 21.0986 25.4812 21.1962 25.4434 21.2872C25.4057 21.3783 25.3504 21.461 25.2806 21.5306L16.2806 30.5306C16.211 30.6004 16.1283 30.6557 16.0372 30.6934C15.9462 30.7312 15.8486 30.7506 15.75 30.7506C15.6514 30.7506 15.5538 30.7312 15.4628 30.6934C15.3717 30.6557 15.289 30.6004 15.2194 30.5306L10.7194 26.0306C10.5786 25.8899 10.4996 25.699 10.4996 25.5C10.4996 25.301 10.5786 25.1101 10.7194 24.9694C10.8601 24.8286 11.051 24.7496 11.25 24.7496C11.449 24.7496 11.6399 24.8286 11.7806 24.9694L15.75 28.9387L24.2194 20.4694C24.289 20.3996 24.3717 20.3443 24.4628 20.3066C24.5538 20.2688 24.6514 20.2494 24.75 20.2494C24.8486 20.2494 24.9462 20.2688 25.0372 20.3066C25.1283 20.3443 25.211 20.3996 25.2806 20.4694Z" fill="white"/>
</svg>
