<svg width="49" height="49" viewBox="0 0 49 49" fill="none" xmlns="http://www.w3.org/2000/svg">
<rect y="0.357178" width="48.2857" height="48.2857" rx="24.1429" fill="white" fill-opacity="0.2"/>
<g clip-path="url(#clip0_1_60546)">
<path d="M24.1468 15.3677C27.124 15.3677 27.4766 15.3807 28.6475 15.433C29.7356 15.4808 30.3233 15.6637 30.715 15.816C31.233 16.0162 31.6073 16.26 31.9947 16.6474C32.3864 17.0391 32.6258 17.4091 32.8261 17.9271C32.9784 18.3188 33.1612 18.9108 33.2091 19.9946C33.2613 21.1698 33.2744 21.5224 33.2744 24.4953C33.2744 27.4725 33.2613 27.8251 33.2091 28.996C33.1612 30.0841 32.9784 30.6717 32.8261 31.0635C32.6258 31.5814 32.3821 31.9558 31.9947 32.3432C31.603 32.7349 31.233 32.9743 30.715 33.1745C30.3233 33.3269 29.7313 33.5097 28.6475 33.5576C27.4723 33.6098 27.1197 33.6229 24.1468 33.6229C21.1696 33.6229 20.817 33.6098 19.6461 33.5576C18.5579 33.5097 17.9703 33.3269 17.5786 33.1745C17.0606 32.9743 16.6863 32.7306 16.2989 32.3432C15.9072 31.9514 15.6678 31.5814 15.4675 31.0635C15.3152 30.6717 15.1324 30.0798 15.0845 28.996C15.0323 27.8207 15.0192 27.4682 15.0192 24.4953C15.0192 21.518 15.0323 21.1655 15.0845 19.9946C15.1324 18.9064 15.3152 18.3188 15.4675 17.9271C15.6678 17.4091 15.9115 17.0348 16.2989 16.6474C16.6906 16.2556 17.0606 16.0162 17.5786 15.816C17.9703 15.6637 18.5623 15.4808 19.6461 15.433C20.817 15.3807 21.1696 15.3677 24.1468 15.3677ZM24.1468 13.3611C21.1217 13.3611 20.743 13.3741 19.5547 13.4264C18.3708 13.4786 17.5568 13.6701 16.8517 13.9443C16.1161 14.2316 15.4936 14.6103 14.8756 15.2327C14.2531 15.8508 13.8744 16.4733 13.5872 17.2045C13.3129 17.914 13.1214 18.7236 13.0692 19.9075C13.017 21.1002 13.0039 21.4789 13.0039 24.504C13.0039 27.5291 13.017 27.9078 13.0692 29.0961C13.1214 30.28 13.3129 31.0939 13.5872 31.7991C13.8744 32.5347 14.2531 33.1571 14.8756 33.7752C15.4936 34.3933 16.1161 34.7763 16.8473 35.0592C17.5568 35.3335 18.3664 35.525 19.5504 35.5772C20.7386 35.6294 21.1173 35.6425 24.1424 35.6425C27.1676 35.6425 27.5462 35.6294 28.7345 35.5772C29.9185 35.525 30.7324 35.3335 31.4376 35.0592C32.1688 34.7763 32.7912 34.3933 33.4093 33.7752C34.0274 33.1571 34.4104 32.5347 34.6934 31.8034C34.9676 31.0939 35.1591 30.2843 35.2113 29.1004C35.2636 27.9121 35.2766 27.5334 35.2766 24.5083C35.2766 21.4832 35.2636 21.1045 35.2113 19.9162C35.1591 18.7323 34.9676 17.9184 34.6934 17.2132C34.4191 16.4733 34.0405 15.8508 33.418 15.2327C32.7999 14.6147 32.1775 14.2316 31.4463 13.9487C30.7368 13.6745 29.9272 13.483 28.7432 13.4307C27.5506 13.3741 27.1719 13.3611 24.1468 13.3611Z" fill="white"/>
<path d="M24.1466 18.7805C20.9866 18.7805 18.4229 21.3443 18.4229 24.5043C18.4229 27.6644 20.9866 30.2281 24.1466 30.2281C27.3067 30.2281 29.8704 27.6644 29.8704 24.5043C29.8704 21.3443 27.3067 18.7805 24.1466 18.7805ZM24.1466 28.2172C22.0965 28.2172 20.4338 26.5544 20.4338 24.5043C20.4338 22.4542 22.0965 20.7915 24.1466 20.7915C26.1968 20.7915 27.8595 22.4542 27.8595 24.5043C27.8595 26.5544 26.1968 28.2172 24.1466 28.2172Z" fill="white"/>
<path d="M31.4333 18.5538C31.4333 19.2938 30.8326 19.8901 30.097 19.8901C29.3571 19.8901 28.7607 19.2894 28.7607 18.5538C28.7607 17.8138 29.3614 17.2175 30.097 17.2175C30.8326 17.2175 31.4333 17.8182 31.4333 18.5538Z" fill="white"/>
</g>
<defs>
<clipPath id="clip0_1_60546">
<rect width="22.2858" height="22.2858" fill="white" transform="translate(13.0039 13.3611)"/>
</clipPath>
</defs>
</svg>
