<svg width="101" height="30" viewBox="0 0 101 30" fill="none" xmlns="http://www.w3.org/2000/svg">
<path opacity="0.6" d="M22.5743 22.3456H0.5C0.5 18.2874 3.79029 15 7.84562 15H15.2258L22.5743 22.3456Z" fill="white"/>
<path d="M29.9113 22.3456C29.9113 24.3733 29.0887 26.2111 27.757 27.5428C26.4311 28.8744 24.5933 29.697 22.5656 29.697H0.5V22.3456H22.5743L15.2286 15H22.5656C26.621 15 29.9113 18.2903 29.9113 22.3456Z" fill="white"/>
<path opacity="0.6" d="M7.88019 7.65436H29.9544C29.9544 11.7126 26.6642 15 22.6088 15H15.2287L7.88019 7.65436Z" fill="white"/>
<path d="M0.543213 7.65438C0.543213 5.62672 1.36578 3.78887 2.69743 2.45722C4.02332 1.12558 5.86117 0.303005 7.88883 0.303005H29.9545V7.65438H7.88021L15.2287 15H7.89171C3.8335 15 0.543213 11.7097 0.543213 7.65438Z" fill="white"/>
<path d="M37.7976 14.3672C36.7938 14.3672 35.9482 14.1429 35.2637 13.6942C34.5792 13.2456 34.096 12.6358 33.8141 11.8621L35.5226 10.8613C35.9195 11.8938 36.696 12.4115 37.8551 12.4115C38.4159 12.4115 38.8244 12.3108 39.0861 12.1066C39.3478 11.9053 39.4772 11.6493 39.4772 11.3387C39.4772 10.982 39.3191 10.7031 38.9998 10.5046C38.6806 10.3062 38.1111 10.0905 37.2914 9.86036C36.837 9.72518 36.4544 9.59 36.1409 9.45483C35.8274 9.31965 35.5139 9.13845 35.2004 8.91124C34.8869 8.68402 34.6482 8.39641 34.4843 8.0484C34.3203 7.70039 34.2369 7.29486 34.2369 6.8318C34.2369 5.91432 34.5619 5.18378 35.2148 4.63732C35.8677 4.09085 36.65 3.81762 37.5675 3.81762C38.3872 3.81762 39.1091 4.01895 39.7332 4.41873C40.3573 4.81851 40.8405 5.37648 41.1885 6.09264L39.5089 7.06189C39.1033 6.1933 38.4562 5.759 37.5675 5.759C37.1533 5.759 36.8254 5.85392 36.5896 6.04087C36.3538 6.23069 36.2358 6.47228 36.2358 6.7714C36.2358 7.09065 36.3681 7.3495 36.6327 7.54508C36.8974 7.74353 37.4064 7.95924 38.16 8.18933C38.4677 8.28712 38.7036 8.3619 38.8617 8.41367C39.0199 8.46544 39.2385 8.54885 39.5146 8.66102C39.7907 8.77319 40.0036 8.87672 40.1531 8.97163C40.3027 9.06942 40.4752 9.19885 40.6679 9.36279C40.8607 9.52673 41.0073 9.69642 41.1109 9.86899C41.2115 10.0416 41.2978 10.2544 41.3726 10.4989C41.4445 10.7462 41.4819 11.0137 41.4819 11.3042C41.4819 12.2418 41.1425 12.9838 40.4609 13.536C39.7764 14.0911 38.8905 14.3672 37.7976 14.3672Z" fill="white"/>
<path d="M51.2406 12.84C50.2167 13.8582 48.9713 14.3672 47.5045 14.3672C46.0377 14.3672 44.7923 13.8582 43.7742 12.84C42.756 11.8219 42.2469 10.5736 42.2469 9.09531C42.2469 7.61698 42.756 6.36874 43.7742 5.35059C44.7923 4.33245 46.0377 3.82337 47.5045 3.82337C48.9713 3.82337 50.2167 4.33245 51.2406 5.35059C52.2645 6.36874 52.7764 7.61698 52.7764 9.09531C52.7764 10.5736 52.2645 11.8219 51.2406 12.84ZM45.172 11.4767C45.799 12.1009 46.5784 12.4115 47.5045 12.4115C48.4306 12.4115 49.21 12.1009 49.837 11.4767C50.464 10.8526 50.7775 10.0588 50.7775 9.09243C50.7775 8.12606 50.464 7.32937 49.837 6.70237C49.21 6.07538 48.4306 5.76188 47.5045 5.76188C46.5784 5.76188 45.799 6.07538 45.172 6.70237C44.545 7.32937 44.2315 8.12606 44.2315 9.09243C44.2286 10.0617 44.545 10.8555 45.172 11.4767Z" fill="white"/>
<path d="M59.7424 14.1659L57.6917 10.6455H56.1789V14.1659H54.18V4.0247H58.2353C59.1729 4.0247 59.9696 4.35258 60.6254 5.00834C61.2811 5.66409 61.609 6.45791 61.609 7.38402C61.609 8.01102 61.4307 8.59487 61.0741 9.12983C60.7174 9.66478 60.2429 10.0703 59.6533 10.3407L61.8995 14.1659H59.7424ZM56.1789 5.89419V8.89111H58.2353C58.6121 8.89111 58.9342 8.74443 59.2046 8.44819C59.4749 8.15482 59.6101 7.79818 59.6101 7.38402C59.6101 6.96986 59.4749 6.61609 59.2046 6.3256C58.9342 6.03512 58.6092 5.89131 58.2353 5.89131H56.1789V5.89419Z" fill="white"/>
<path d="M69.5644 4.0247V5.93733H66.8263V14.1659H64.8274V5.93733H62.1037V4.0247H69.5644Z" fill="white"/>
<path d="M72.6792 12.2533H76.9531V14.1659H70.6803V4.0247H76.8812V5.93733H72.6792V8.09442H76.5188V9.97828H72.6792V12.2533Z" fill="white"/>
<path d="M78.3567 4.0247H80.3556V14.1659H78.3567V4.0247Z" fill="white"/>
<path d="M90.7729 12.84C89.749 13.8582 88.5037 14.3672 87.0369 14.3672C85.57 14.3672 84.3247 13.8582 83.3065 12.84C82.2884 11.8219 81.7793 10.5736 81.7793 9.09531C81.7793 7.61698 82.2884 6.36874 83.3065 5.35059C84.3247 4.33245 85.57 3.82337 87.0369 3.82337C88.5037 3.82337 89.749 4.33245 90.7729 5.35059C91.7968 6.36874 92.3088 7.61698 92.3088 9.09531C92.3088 10.5736 91.7968 11.8219 90.7729 12.84ZM84.7014 11.4767C85.3284 12.1009 86.1079 12.4115 87.034 12.4115C87.9601 12.4115 88.7395 12.1009 89.3665 11.4767C89.9935 10.8526 90.307 10.0588 90.307 9.09243C90.307 8.12606 89.9935 7.32937 89.3665 6.70237C88.7395 6.07538 87.9601 5.76188 87.034 5.76188C86.1079 5.76188 85.3284 6.07538 84.7014 6.70237C84.0744 7.32937 83.761 8.12606 83.761 9.09243C83.761 10.0617 84.0744 10.8555 84.7014 11.4767Z" fill="white"/>
<path d="M96.8128 14.3672C95.809 14.3672 94.9634 14.1429 94.2789 13.6942C93.5944 13.2456 93.1112 12.6358 92.8293 11.8621L94.5378 10.8613C94.9347 11.8938 95.7112 12.4115 96.8703 12.4115C97.4311 12.4115 97.8424 12.3108 98.1013 12.1066C98.3601 11.9024 98.4924 11.6493 98.4924 11.3387C98.4924 10.982 98.3342 10.7031 98.015 10.5046C97.6957 10.3062 97.1263 10.0905 96.3066 9.86036C95.8522 9.72518 95.4696 9.59 95.1561 9.45483C94.8426 9.31965 94.5291 9.13845 94.2156 8.91124C93.9021 8.68402 93.6634 8.39641 93.4995 8.0484C93.3355 7.70039 93.2521 7.29486 93.2521 6.8318C93.2521 5.91432 93.5771 5.18378 94.23 4.63732C94.8829 4.09085 95.6652 3.81762 96.5827 3.81762C97.4024 3.81762 98.1243 4.01895 98.7484 4.41873C99.3725 4.81851 99.8557 5.37648 100.204 6.09264L98.5241 7.06189C98.1185 6.1933 97.4714 5.759 96.5827 5.759C96.1685 5.759 95.8406 5.85392 95.6048 6.04087C95.369 6.23069 95.251 6.47228 95.251 6.7714C95.251 7.09065 95.3833 7.3495 95.6508 7.54508C95.9183 7.74066 96.4245 7.95924 97.178 8.18933C97.4858 8.28712 97.7216 8.3619 97.8798 8.41367C98.038 8.46544 98.2566 8.54885 98.5327 8.66102C98.8088 8.77319 99.0188 8.87672 99.1712 8.97163C99.3208 9.06942 99.4933 9.19885 99.686 9.36279C99.8787 9.52673 100.025 9.69642 100.129 9.86899C100.23 10.0416 100.316 10.2544 100.391 10.4989C100.463 10.7462 100.5 11.0137 100.5 11.3042C100.5 12.2418 100.161 12.9838 99.4789 13.536C98.7887 14.0911 97.9028 14.3672 96.8128 14.3672Z" fill="white"/>
<path d="M42.6266 25.262L41.0303 26.1766L40.1042 25.1757C39.319 25.7567 38.4102 26.0472 37.3748 26.0472C36.3279 26.0472 35.4737 25.774 34.8122 25.2275C34.1478 24.681 33.817 23.9476 33.817 23.0273C33.817 22.4261 33.9637 21.8711 34.2513 21.3591C34.5418 20.8472 34.9617 20.4301 35.5139 20.1109C35.1861 19.5874 35.0192 19.0208 35.0192 18.4111C35.0192 17.5511 35.3184 16.8465 35.9195 16.2971C36.5206 15.7507 37.2799 15.4774 38.2002 15.4774C38.925 15.4774 39.5779 15.6644 40.1531 16.0354C40.7283 16.4093 41.1569 16.9471 41.4387 17.6547L39.7246 18.6412C39.4427 17.8272 38.9451 17.4217 38.229 17.4217C37.881 17.4217 37.5934 17.5224 37.3662 17.7266C37.1389 17.9308 37.0239 18.1867 37.0239 18.4974C37.0239 18.7677 37.09 19.0151 37.2195 19.2365C37.3489 19.458 37.5617 19.7255 37.8522 20.0361L40.0266 22.4146C40.2394 21.9602 40.4033 21.3994 40.5213 20.735L42.2038 21.6927C42.0197 22.4779 41.7235 23.1883 41.3179 23.8297L42.6266 25.262ZM37.5071 24.2036C38.0104 24.2036 38.462 24.0799 38.8617 23.8355L36.6615 21.4598C36.6414 21.4396 36.6327 21.4253 36.6327 21.4166C36.1007 21.7445 35.8361 22.2162 35.8361 22.8259C35.8361 23.243 35.9799 23.5766 36.2646 23.8268C36.5493 24.077 36.9635 24.2036 37.5071 24.2036Z" fill="white"/>
<path d="M48.8937 17.7266C49.6788 17.7266 50.3432 17.9912 50.8811 18.5204C51.4189 19.0496 51.6864 19.6996 51.6864 20.4733C51.6864 21.2441 51.4189 21.8941 50.8811 22.4233C50.3432 22.9525 49.6817 23.2171 48.8937 23.2171H47.4556V25.9034H45.8421V17.7237H48.8937V17.7266ZM48.8937 21.71C49.2359 21.71 49.5207 21.5921 49.7479 21.3534C49.9751 21.1146 50.0873 20.8213 50.0873 20.4704C50.0873 20.1109 49.9751 19.8146 49.7479 19.5817C49.5207 19.3487 49.2388 19.2308 48.8937 19.2308H47.4556V21.7071H48.8937V21.71Z" fill="white"/>
<path d="M58.3935 25.9034L56.7397 23.0647H55.5174V25.9034H53.9039V17.7237H57.1769C57.9333 17.7237 58.5747 17.9883 59.1039 18.5175C59.6331 19.0467 59.8977 19.6852 59.8977 20.433C59.8977 20.9392 59.7539 21.408 59.4663 21.8423C59.1787 22.2737 58.7962 22.5987 58.3216 22.8173L60.1336 25.9034H58.3935ZM55.5174 19.2337V21.6525H57.1769C57.4818 21.6525 57.7406 21.5346 57.9592 21.2958C58.1778 21.0571 58.2871 20.7724 58.2871 20.4359C58.2871 20.0994 58.1778 19.8175 57.9592 19.5817C57.7406 19.3487 57.4789 19.2308 57.1769 19.2308H55.5174V19.2337Z" fill="white"/>
<path d="M63.861 24.3618H67.3066V25.9034H62.2475V17.7237H67.2491V19.2653H63.861V21.0053H66.9586V22.5239H63.861V24.3618ZM64.7123 16.323L64.1975 17.0823H62.7019L63.9415 15.3883H65.4716L66.7112 17.0823H65.2157L64.7123 16.323Z" fill="white"/>
<path d="M77.6147 17.7266V25.9063H76.0127V20.6027L73.706 24.3963L73.5191 24.4021L71.2239 20.6199V25.9063H69.6104V17.7266H71.2699L73.614 21.5892L75.9465 17.7266H77.6147Z" fill="white"/>
<path d="M80.301 17.7266H81.9145V25.9063H80.301V17.7266Z" fill="white"/>
<path d="M91.4833 24.8363C90.6579 25.6589 89.6541 26.0702 88.4692 26.0702C87.2842 26.0702 86.2833 25.6589 85.4607 24.8363C84.6382 24.0138 84.2269 23.0071 84.2269 21.8164C84.2269 20.6257 84.6382 19.619 85.4607 18.7965C86.2833 17.9739 87.2842 17.5626 88.4692 17.5626C89.6541 17.5626 90.6579 17.9739 91.4833 18.7965C92.3088 19.619 92.7229 20.6257 92.7229 21.8164C92.7229 23.0071 92.3088 24.0138 91.4833 24.8363ZM86.5882 23.7377C87.0944 24.241 87.7214 24.4912 88.4692 24.4912C89.2169 24.4912 89.8439 24.241 90.3501 23.7377C90.8563 23.2343 91.1094 22.5958 91.1094 21.8164C91.1094 21.037 90.8563 20.3956 90.3501 19.8894C89.8439 19.3832 89.2169 19.1301 88.4692 19.1301C87.7214 19.1301 87.0944 19.3832 86.5882 19.8894C86.082 20.3956 85.8289 21.0399 85.8289 21.8164C85.8289 22.593 86.082 23.2343 86.5882 23.7377Z" fill="white"/>
<path d="M97.5232 26.0673C96.7121 26.0673 96.0305 25.8861 95.4783 25.5237C94.926 25.1613 94.5349 24.6695 94.3105 24.0454L95.6882 23.2401C96.0075 24.0742 96.6345 24.4912 97.5692 24.4912C98.0208 24.4912 98.3515 24.4107 98.5615 24.2467C98.7714 24.0828 98.8778 23.8757 98.8778 23.6284C98.8778 23.3408 98.7484 23.1164 98.4924 22.9554C98.2365 22.7943 97.7763 22.6217 97.1148 22.4348C96.7495 22.3255 96.4389 22.2162 96.1858 22.1069C95.9327 21.9976 95.6796 21.8509 95.4265 21.6697C95.1734 21.4857 94.9807 21.2556 94.8484 20.9737C94.7161 20.6947 94.6499 20.3668 94.6499 19.9929C94.6499 19.2538 94.9117 18.6642 95.438 18.2241C95.9643 17.7841 96.5971 17.5626 97.3362 17.5626C97.9977 17.5626 98.5816 17.7237 99.082 18.0487C99.5854 18.3708 99.9765 18.8224 100.256 19.3976L98.9008 20.1799C98.573 19.4781 98.0524 19.1272 97.3362 19.1272C97.0026 19.1272 96.738 19.202 96.5482 19.3544C96.3583 19.5069 96.2606 19.7025 96.2606 19.9441C96.2606 20.2 96.367 20.41 96.5827 20.5682C96.7955 20.7292 97.2068 20.9018 97.8165 21.0888C98.0668 21.1664 98.2537 21.2268 98.3831 21.2699C98.5126 21.3131 98.688 21.3792 98.9095 21.4684C99.1309 21.5576 99.3035 21.641 99.4243 21.7186C99.5451 21.7963 99.6831 21.9027 99.8385 22.035C99.9938 22.1673 100.115 22.3025 100.195 22.4434C100.276 22.5843 100.348 22.754 100.405 22.9525C100.463 23.1509 100.491 23.3666 100.491 23.5996C100.491 24.356 100.218 24.9543 99.6688 25.4001C99.1194 25.8459 98.4033 26.0673 97.5232 26.0673Z" fill="white"/>
</svg>
