<svg width="27" height="27" viewBox="0 0 27 27" fill="none" xmlns="http://www.w3.org/2000/svg">
<g clip-path="url(#clip0_1_351)">
<path d="M21.375 0H5.625C4.13371 0.00178634 2.704 0.594992 1.6495 1.6495C0.594992 2.704 0.00178634 4.13371 0 5.625L0 21.375C0.00178634 22.8663 0.594992 24.296 1.6495 25.3505C2.704 26.405 4.13371 26.9982 5.625 27H21.375C22.8663 26.9982 24.296 26.405 25.3505 25.3505C26.405 24.296 26.9982 22.8663 27 21.375V5.625C26.9982 4.13371 26.405 2.704 25.3505 1.6495C24.296 0.594992 22.8663 0.00178634 21.375 0ZM24.75 21.375C24.75 22.2701 24.3944 23.1286 23.7615 23.7615C23.1286 24.3944 22.2701 24.75 21.375 24.75H5.625C4.72989 24.75 3.87145 24.3944 3.23851 23.7615C2.60558 23.1286 2.25 22.2701 2.25 21.375V5.625C2.25 4.72989 2.60558 3.87145 3.23851 3.23851C3.87145 2.60558 4.72989 2.25 5.625 2.25H21.375C22.2701 2.25 23.1286 2.60558 23.7615 3.23851C24.3944 3.87145 24.75 4.72989 24.75 5.625V21.375Z" fill="black"/>
<path d="M10.4997 17.9088L6.09079 13.4999C5.87982 13.289 5.59372 13.1705 5.29541 13.1705C4.9971 13.1705 4.71101 13.289 4.50004 13.4999C4.28913 13.7109 4.17065 13.997 4.17065 14.2953C4.17065 14.5936 4.28913 14.8797 4.50004 15.0907L8.90891 19.4995C9.11786 19.7086 9.36594 19.8744 9.63898 19.9875C9.91202 20.1006 10.2047 20.1589 10.5002 20.1589C10.7958 20.1589 11.0884 20.1006 11.3615 19.9875C11.6345 19.8744 11.8826 19.7086 12.0915 19.4995L22.5 9.09103C22.7109 8.88006 22.8294 8.59397 22.8294 8.29566C22.8294 7.99735 22.7109 7.71125 22.5 7.50028C22.2891 7.28938 22.003 7.1709 21.7047 7.1709C21.4064 7.1709 21.1203 7.28938 20.9093 7.50028L10.4997 17.9088Z" fill="black"/>
</g>
<defs>
<clipPath id="clip0_1_351">
<rect width="27" height="27" fill="white"/>
</clipPath>
</defs>
</svg>
