<svg width="18" height="18" viewBox="0 0 18 18" fill="none" xmlns="http://www.w3.org/2000/svg">
<path d="M3.98795 0.964926C4.41296 1.05277 4.75143 1.33832 4.96173 1.7156L5.63164 2.91743C5.87839 3.36008 6.08605 3.7326 6.22166 4.05643C6.36551 4.39994 6.45095 4.73868 6.41189 5.1132C6.37284 5.48772 6.21935 5.80155 6.00772 6.10799C5.80821 6.39688 5.52816 6.71853 5.19539 7.10075L4.21063 8.23189C4.03416 8.43459 3.94593 8.53594 3.93787 8.66261C3.9298 8.78929 4.00212 8.89748 4.14675 9.11388C5.37944 10.9582 7.0408 12.6201 8.88662 13.8539C9.10302 13.9985 9.21121 14.0708 9.33789 14.0627C9.46457 14.0547 9.56592 13.9665 9.76862 13.79L10.8998 12.8052C11.282 12.4724 11.6037 12.1924 11.8926 11.9929C12.199 11.7812 12.5128 11.6277 12.8874 11.5887C13.2619 11.5496 13.6006 11.6351 13.9441 11.7789C14.2679 11.9145 14.6404 12.1222 15.083 12.3689L16.285 13.0388C16.6622 13.2491 16.9478 13.5876 17.0356 14.0126C17.1244 14.4421 16.9935 14.8737 16.7043 15.2285C15.6551 16.5158 13.9742 17.3354 12.2108 16.9797C11.1268 16.761 10.0573 16.3967 8.76379 15.6549C6.16478 14.1644 3.83447 11.8328 2.34566 9.23677C1.60383 7.94324 1.23954 6.87375 1.02088 5.78981C0.66516 4.02639 1.48479 2.34543 2.77206 1.29625C3.12683 1.00709 3.5585 0.876165 3.98795 0.964926Z" fill="white"/>
</svg>
