<svg width="23" height="23" viewBox="0 0 23 23" fill="none" xmlns="http://www.w3.org/2000/svg">
<path d="M18.2083 0H4.79167C3.5213 0.0015217 2.30341 0.506845 1.40513 1.40513C0.506845 2.30341 0.0015217 3.5213 0 4.79167L0 18.2083C0.0015217 19.4787 0.506845 20.6966 1.40513 21.5949C2.30341 22.4932 3.5213 22.9985 4.79167 23H18.2083C19.4787 22.9985 20.6966 22.4932 21.5949 21.5949C22.4932 20.6966 22.9985 19.4787 23 18.2083V4.79167C22.9985 3.5213 22.4932 2.30341 21.5949 1.40513C20.6966 0.506845 19.4787 0.0015217 18.2083 0ZM21.0833 18.2083C21.0833 18.9708 20.7804 19.7021 20.2413 20.2413C19.7021 20.7804 18.9708 21.0833 18.2083 21.0833H4.79167C4.02917 21.0833 3.2979 20.7804 2.75873 20.2413C2.21957 19.7021 1.91667 18.9708 1.91667 18.2083V4.79167C1.91667 4.02917 2.21957 3.2979 2.75873 2.75873C3.2979 2.21957 4.02917 1.91667 4.79167 1.91667H18.2083C18.9708 1.91667 19.7021 2.21957 20.2413 2.75873C20.7804 3.2979 21.0833 4.02917 21.0833 4.79167V18.2083Z" fill="black"/>
</svg>
