<svg width="12" height="11" viewBox="0 0 12 11" fill="none" xmlns="http://www.w3.org/2000/svg">
<path d="M6.69556 5.59253L11.1691 1.08296C11.2091 1.04261 11.2408 0.994721 11.2625 0.94201C11.2841 0.889299 11.2953 0.832803 11.2953 0.77575C11.2953 0.718696 11.2841 0.662201 11.2625 0.60949C11.2408 0.55678 11.2091 0.508885 11.1691 0.468542C11.129 0.428199 11.0815 0.396197 11.0292 0.374364C10.977 0.35253 10.9209 0.341293 10.8643 0.341293C10.8077 0.341293 10.7517 0.35253 10.6994 0.374364C10.6471 0.396197 10.5996 0.428199 10.5596 0.468542L6.08606 4.93175L1.61256 0.422171C1.57254 0.381828 1.52503 0.349826 1.47274 0.327993C1.42046 0.306159 1.36441 0.294922 1.30781 0.294922C1.25122 0.294922 1.19517 0.306159 1.14289 0.327993C1.0906 0.349826 1.04308 0.381828 1.00306 0.422171C0.963044 0.462514 0.931299 0.510409 0.90964 0.563119C0.887981 0.61583 0.876833 0.672325 0.876833 0.729379C0.876833 0.786433 0.887981 0.842928 0.90964 0.895639C0.931299 0.94835 0.963044 0.996244 1.00306 1.03659L5.47656 5.59253L1.00306 10.0557C0.962379 10.0957 0.930044 10.1435 0.907965 10.1962C0.885887 10.249 0.874512 10.3057 0.874512 10.3629C0.874512 10.4202 0.885887 10.4769 0.907965 10.5297C0.930044 10.5824 0.962379 10.6302 1.00306 10.6702C1.04093 10.7118 1.08723 10.7447 1.13881 10.7667C1.1904 10.7887 1.24607 10.7993 1.30206 10.7977C1.35978 10.7994 1.41722 10.789 1.47069 10.767C1.52417 10.7451 1.57249 10.7121 1.61256 10.6702L6.08606 6.16058L10.5596 10.6702C10.5974 10.7118 10.6437 10.7447 10.6953 10.7667C10.7469 10.7887 10.8026 10.7993 10.8586 10.7977C10.9164 10.8002 10.974 10.7901 11.0276 10.7681C11.0812 10.7461 11.1294 10.7127 11.1691 10.6702C11.2098 10.6302 11.2421 10.5824 11.2642 10.5297C11.2862 10.4769 11.2976 10.4202 11.2976 10.3629C11.2976 10.3057 11.2862 10.249 11.2642 10.1962C11.2421 10.1435 11.2098 10.0957 11.1691 10.0557L6.69556 5.59253Z" fill="black"/>
</svg>
