<svg width="49" height="49" viewBox="0 0 49 49" fill="none" xmlns="http://www.w3.org/2000/svg">
<rect x="0.571289" y="0.357178" width="48.2857" height="48.2857" rx="24.1429" fill="white" fill-opacity="0.2"/>
<g clip-path="url(#clip0_1_60549)">
<path d="M35.6389 20.0466C35.6389 20.0466 35.4213 18.5101 34.751 17.8354C33.9022 16.9475 32.9533 16.9431 32.5181 16.8909C29.4015 16.6646 24.7224 16.6646 24.7224 16.6646H24.7137C24.7137 16.6646 20.0346 16.6646 16.9181 16.8909C16.4828 16.9431 15.5339 16.9475 14.6851 17.8354C14.0148 18.5101 13.8015 20.0466 13.8015 20.0466C13.8015 20.0466 13.5752 21.8529 13.5752 23.655V25.3438C13.5752 27.1458 13.7972 28.9522 13.7972 28.9522C13.7972 28.9522 14.0148 30.4887 14.6808 31.1633C15.5295 32.0513 16.6438 32.0208 17.14 32.1166C18.9246 32.2863 24.7181 32.3385 24.7181 32.3385C24.7181 32.3385 29.4015 32.3298 32.5181 32.1079C32.9533 32.0556 33.9022 32.0513 34.751 31.1633C35.4213 30.4887 35.6389 28.9522 35.6389 28.9522C35.6389 28.9522 35.8609 27.1502 35.8609 25.3438V23.655C35.8609 21.8529 35.6389 20.0466 35.6389 20.0466ZM22.4155 27.3939V21.1304L28.4352 24.273L22.4155 27.3939Z" fill="white"/>
</g>
<defs>
<clipPath id="clip0_1_60549">
<rect width="22.2857" height="22.2857" fill="white" transform="translate(13.5752 13.3611)"/>
</clipPath>
</defs>
</svg>
